# File created by Blade
# Date/Time:  Tue Apr 07 20:35:32 2015
# Frame Rate: 120.000 fps
#------------------------------------------------------
:FULLY-SPECIFIED
:DEGREES
618
root 0.691456 34.052015 -2.405879 26.558658 -43.324533 -39.881450
Spine 5.768339 21.846957 17.356875
Head 6.627684 13.673174 2.276158
LeftShoulder -29.337900 45.319956 6.046461
LeftArm 49.124321 -45.115339 -84.172743
LeftForeArm 1.971167 -0.000000 12.113301
LeftHand 12.995077 -0.000000 5.110881
LeftHandThumb1 -26.253704 0.000000 33.147579
RightShoulder 1.152018 -3.877736 -20.661786
RightArm 17.791852 -28.979776 89.544904
RightForeArm -28.008486 -0.000000 10.690131
RightHand 1.101547 0.000000 24.400005
RightHandThumb1 -24.326973 -0.000000 -32.862282
LeftUpLeg 0.831712 6.166665 22.435517
LeftLeg 9.885550 -0.000000 -0.000000
LeftFoot -6.919544 29.838107 -1.384862
LeftToeBase -14.048838 -0.000000 0.000000
RightUpLeg -129.687705 -46.641096 56.517063
RightLeg 152.128999 -0.000000 -0.000000
RightFoot 45.983469 -12.523130 20.666879
RightToeBase 31.588324 -0.000000 -0.000000
619
root 0.704415 34.074013 -2.420284 26.627387 -43.327983 -39.785580
Spine 5.695367 21.779266 17.290064
Head 6.466232 13.767897 2.344024
LeftShoulder -29.227792 45.206610 6.211625
LeftArm 48.875466 -44.864841 -83.580047
LeftForeArm 1.817023 -0.000000 11.980549
LeftHand 12.952882 -0.000000 4.988060
LeftHandThumb1 -26.253704 0.000000 33.147579
RightShoulder 1.149792 -3.890107 -20.432976
RightArm 17.820119 -28.828400 89.469346
RightForeArm -28.480869 -0.000000 10.683290
RightHand 0.906395 -0.000000 24.469293
RightHandThumb1 -24.326973 -0.000000 -32.862282
LeftUpLeg 0.537012 6.481745 22.260052
LeftLeg 9.985064 -0.000000 -0.000000
LeftFoot -6.516393 30.179336 -1.131274
LeftToeBase -14.110229 -0.000000 0.000000
RightUpLeg -129.355599 -46.690124 56.155090
RightLeg 152.067483 -0.000000 -0.000000
RightFoot 46.035093 -12.164153 20.414051
RightToeBase 31.681586 -0.000000 -0.000000
620
root 0.721523 34.091312 -2.432444 26.589260 -43.393313 -39.584435
Spine 5.684534 21.707003 17.156339
Head 6.281089 13.835037 2.381825
LeftShoulder -29.181663 45.163241 6.266721
LeftArm 48.858975 -44.709354 -83.153433
LeftForeArm 1.785755 -0.000000 11.818773
LeftHand 12.914236 -0.000000 4.941414
LeftHandThumb1 -26.253704 0.000000 33.147579
RightShoulder 1.176468 -3.924907 -20.195424
RightArm 17.916731 -28.840712 89.286788
RightForeArm -28.341428 -0.000000 10.686836
RightHand 0.826052 -0.000000 24.952448
RightHandThumb1 -24.326973 -0.000000 -32.862282
LeftUpLeg 0.314261 6.779999 21.971518
LeftLeg 9.976915 -0.000000 -0.000000
LeftFoot -6.104044 30.563282 -0.956903
LeftToeBase -14.157513 -0.000000 0.000000
RightUpLeg -129.036659 -46.705085 55.719270
RightLeg 152.038988 -0.000000 -0.000000
RightFoot 46.091769 -11.900615 20.230048
RightToeBase 31.609910 -0.000000 -0.000000
621
root 0.742906 34.109418 -2.453196 26.683081 -43.465704 -39.528936
Spine 5.682157 21.699460 17.136389
Head 6.080226 13.902187 2.365821
LeftShoulder -29.018985 45.078090 6.404626
LeftArm 48.669392 -44.604663 -82.679891
LeftForeArm 1.715622 -0.000000 11.754286
LeftHand 12.891648 0.000000 4.860256
LeftHandThumb1 -26.253704 0.000000 33.147579
RightShoulder 1.193708 -3.997248 -19.956301
RightArm 18.120688 -28.991534 88.930225
RightForeArm -28.530466 -0.000000 10.746088
RightHand 0.756970 -0.000000 24.705612
RightHandThumb1 -24.326973 -0.000000 -32.862282
LeftUpLeg 0.022607 7.182944 21.752739
LeftLeg 10.030288 -0.000000 -0.000000
LeftFoot -5.740778 31.059324 -0.775626
LeftToeBase -14.074899 -0.000000 0.000000
RightUpLeg -128.710473 -46.575253 55.437330
RightLeg 151.977028 -0.000000 -0.000000
RightFoot 46.104243 -11.809459 20.074726
RightToeBase 31.787030 -0.000000 -0.000000
622
root 0.763800 34.121092 -2.469165 26.663799 -43.580561 -39.388040
Spine 5.755336 21.702094 17.081809
Head 5.843642 13.936366 2.273630
LeftShoulder -28.843384 45.022136 6.517674
LeftArm 48.601219 -44.598867 -82.323736
LeftForeArm 1.664219 -0.000000 11.686971
LeftHand 12.928764 -0.000000 4.818259
LeftHandThumb1 -26.253704 0.000000 33.147579
RightShoulder 1.211322 -3.928423 -19.745741
RightArm 18.214847 -29.120237 88.694076
RightForeArm -28.603156 -0.000000 10.681672
RightHand 0.756364 0.000000 24.712025
RightHandThumb1 -24.326973 -0.000000 -32.862282
LeftUpLeg -0.191856 7.624328 21.449556
LeftLeg 10.036667 -0.000000 -0.000000
LeftFoot -5.376425 31.577928 -0.551732
LeftToeBase -14.051992 -0.000000 0.000000
RightUpLeg -128.331952 -46.531362 54.996604
RightLeg 151.953552 -0.000000 -0.000000
RightFoot 46.041847 -11.724445 20.057935
RightToeBase 31.866468 -0.000000 -0.000000
623
root 0.790411 34.128688 -2.491604 26.694379 -43.731825 -39.292253
Spine 5.853477 21.724133 17.061792
Head 5.574177 13.956686 2.124515
LeftShoulder -28.704075 44.996477 6.590429
LeftArm 48.623290 -44.645498 -82.073881
LeftForeArm 1.656012 -0.000000 11.606281
LeftHand 12.794143 -0.000000 5.094729
LeftHandThumb1 -26.253704 0.000000 33.147579
RightShoulder 1.258195 -3.785984 -19.584804
RightArm 18.342241 -29.261747 88.487311
RightForeArm -28.509517 -0.000000 10.452167
RightHand 0.780297 -0.000000 24.811282
RightHandThumb1 -24.326973 -0.000000 -32.862282
LeftUpLeg -0.399571 8.084011 21.155259
LeftLeg 10.017415 -0.000000 -0.000000
LeftFoot -5.130772 32.128492 -0.437363
LeftToeBase -13.883122 -0.000000 0.000000
RightUpLeg -127.937085 -46.394948 54.554188
RightLeg 151.886573 -0.000000 -0.000000
RightFoot 45.981281 -11.658572 20.063027
RightToeBase 31.712382 -0.000000 -0.000000
624
root 0.816856 34.131718 -2.516738 26.765921 -43.877789 -39.307119
Spine 6.014657 21.728700 17.170206
Head 5.314154 14.021827 1.887965
LeftShoulder -28.600564 45.008152 6.667912
LeftArm 48.826901 -44.786479 -82.127476
LeftForeArm 1.764179 -0.000000 11.518115
LeftHand 12.925945 -0.000000 5.035489
LeftHandThumb1 -26.253704 0.000000 33.147579
RightShoulder 1.344504 -3.624028 -19.534080
RightArm 18.515805 -29.386568 88.366435
RightForeArm -28.313929 -0.000000 10.070725
RightHand 0.639536 -0.000000 24.882070
RightHandThumb1 -24.326973 -0.000000 -32.862282
LeftUpLeg -0.521924 8.526360 20.961202
LeftLeg 9.954178 -0.000000 -0.000000
LeftFoot -5.004105 32.641818 -0.341196
LeftToeBase -13.638002 -0.000000 0.000000
RightUpLeg -127.495396 -46.256852 54.148532
RightLeg 151.774000 -0.000000 -0.000000
RightFoot 45.890633 -11.675390 20.051743
RightToeBase 31.887710 -0.000000 -0.000000
625
root 0.842514 34.129661 -2.543090 26.878924 -44.009674 -39.398191
Spine 6.187045 21.721660 17.366589
Head 5.099698 14.082053 1.618605
LeftShoulder -28.526143 45.014039 6.745219
LeftArm 49.029967 -44.855524 -82.106507
LeftForeArm 1.748809 0.000000 11.295094
LeftHand 12.899237 -0.000000 5.193826
LeftHandThumb1 -26.253704 0.000000 33.147579
RightShoulder 1.500256 -3.387016 -19.585025
RightArm 18.494920 -29.264007 88.485249
RightForeArm -28.333905 -0.000000 9.716970
RightHand 0.658065 -0.000000 24.793750
RightHandThumb1 -24.326973 -0.000000 -32.862282
LeftUpLeg -0.616525 8.955018 20.858365
LeftLeg 9.931850 -0.000000 -0.000000
LeftFoot -5.089259 32.955107 -0.465849
LeftToeBase -13.486781 -0.000000 0.000000
RightUpLeg -127.005034 -46.139917 53.714702
RightLeg 151.627387 -0.000000 -0.000000
RightFoot 45.851353 -11.594857 19.994332
RightToeBase 31.872277 -0.000000 -0.000000
626
root 0.866588 34.116810 -2.567044 26.975126 -44.138759 -39.468982
Spine 6.325692 21.706999 17.553503
Head 4.965306 14.179718 1.373855
LeftShoulder -28.426790 45.002836 6.901157
LeftArm 49.070248 -44.846289 -81.922310
LeftForeArm 1.612719 -0.000000 11.083892
LeftHand 12.911906 -0.000000 5.248540
LeftHandThumb1 -26.253704 0.000000 33.147579
RightShoulder 1.669352 -3.262500 -19.690291
RightArm 18.524267 -29.121007 88.622135
RightForeArm -28.282175 -0.000000 9.423229
RightHand 0.666149 -0.000000 24.941285
RightHandThumb1 -24.326973 -0.000000 -32.862282
LeftUpLeg -0.673028 9.287672 20.775240
LeftLeg 9.926714 -0.000000 -0.000000
LeftFoot -5.365851 33.134041 -0.622078
LeftToeBase -13.170347 -0.000000 0.000000
RightUpLeg -126.539863 -46.053034 53.211644
RightLeg 151.475772 -0.000000 -0.000000
RightFoot 45.805276 -11.468675 19.876177
RightToeBase 31.889213 -0.000000 -0.000000
627
root 0.891646 34.097181 -2.594372 27.163085 -44.278242 -39.643130
Spine 6.457006 21.715260 17.812983
Head 4.841404 14.338903 1.160104
LeftShoulder -28.361059 44.937390 7.059683
LeftArm 49.127250 -44.858638 -81.764694
LeftForeArm 1.440297 -0.000000 10.833401
LeftHand 12.935228 0.000000 5.260636
LeftHandThumb1 -26.253704 0.000000 33.147579
RightShoulder 1.886871 -3.104676 -19.828088
RightArm 18.428692 -28.847150 88.804346
RightForeArm -28.699604 0.000000 9.272723
RightHand 0.663812 -0.000000 24.620610
RightHandThumb1 -24.326973 -0.000000 -32.862282
LeftUpLeg -0.705913 9.588751 20.801766
LeftLeg 9.934678 -0.000000 -0.000000
LeftFoot -5.771984 33.155308 -0.756332
LeftToeBase -12.871010 -0.000000 0.000000
RightUpLeg -126.019010 -45.909200 52.678451
RightLeg 151.293723 -0.000000 -0.000000
RightFoot 45.782723 -11.319018 19.725421
RightToeBase 31.899274 -0.000000 -0.000000
628
root 0.916686 34.067715 -2.623615 27.393695 -44.380580 -39.828281
Spine 6.528183 21.701156 18.083476
Head 4.740890 14.544883 0.938269
LeftShoulder -28.316306 44.865173 7.213457
LeftArm 49.084041 -44.803370 -81.421981
LeftForeArm 1.111714 -0.000000 10.556189
LeftHand 12.968987 -0.000000 5.306484
LeftHandThumb1 -26.253704 0.000000 33.147579
RightShoulder 2.135570 -2.976567 -19.987090
RightArm 18.299738 -28.523948 88.983229
RightForeArm -29.147728 -0.000000 9.210292
RightHand 0.581743 -0.000000 24.644787
RightHandThumb1 -24.326973 -0.000000 -32.862282
LeftUpLeg -0.770011 9.715254 20.879969
LeftLeg 9.971567 -0.000000 -0.000000
LeftFoot -6.379997 33.106476 -1.034752
LeftToeBase -12.517404 -0.000000 0.000000
RightUpLeg -125.544408 -45.757286 52.120085
RightLeg 151.098880 -0.000000 -0.000000
RightFoot 45.764987 -11.205915 19.584522
RightToeBase 32.087200 -0.000000 -0.000000
